<mxfile host="app.diagrams.net" agent="Mozilla/5.0 (Windows NT 10.0; Win64; x64) AppleWebKit/537.36 (KHTML, like Gecko) Chrome/136.0.0.0 Safari/537.36" version="27.0.5">
  <diagram name="Page-1" id="y9oX3G7SkzqgrybB10Du">
    <mxGraphModel dx="2185" dy="1193" grid="1" gridSize="10" guides="1" tooltips="1" connect="1" arrows="1" fold="1" page="1" pageScale="1" pageWidth="1100" pageHeight="1700" math="0" shadow="0">
      <root>
        <mxCell id="0" />
        <mxCell id="1" parent="0" />
        <mxCell id="hkWMJurQp-Kq_6r-GerD-7" style="edgeStyle=orthogonalEdgeStyle;rounded=0;orthogonalLoop=1;jettySize=auto;html=1;exitX=1;exitY=0.5;exitDx=0;exitDy=0;entryX=0.5;entryY=0;entryDx=0;entryDy=0;fontSize=15;fontFamily=Lucida Console;" edge="1" parent="1" source="hkWMJurQp-Kq_6r-GerD-1" target="hkWMJurQp-Kq_6r-GerD-2">
          <mxGeometry relative="1" as="geometry" />
        </mxCell>
        <mxCell id="hkWMJurQp-Kq_6r-GerD-1" value="Requirement Gathering &amp;amp; Analysis" style="rounded=0;whiteSpace=wrap;html=1;fontSize=15;fontFamily=Lucida Console;" vertex="1" parent="1">
          <mxGeometry x="10" y="50" width="220" height="60" as="geometry" />
        </mxCell>
        <mxCell id="hkWMJurQp-Kq_6r-GerD-8" style="edgeStyle=orthogonalEdgeStyle;rounded=0;orthogonalLoop=1;jettySize=auto;html=1;exitX=0;exitY=0.5;exitDx=0;exitDy=0;entryX=0.5;entryY=1;entryDx=0;entryDy=0;fontSize=15;fontFamily=Lucida Console;" edge="1" parent="1" source="hkWMJurQp-Kq_6r-GerD-2" target="hkWMJurQp-Kq_6r-GerD-1">
          <mxGeometry relative="1" as="geometry" />
        </mxCell>
        <mxCell id="hkWMJurQp-Kq_6r-GerD-9" style="edgeStyle=orthogonalEdgeStyle;rounded=0;orthogonalLoop=1;jettySize=auto;html=1;exitX=1;exitY=0.5;exitDx=0;exitDy=0;entryX=0.5;entryY=0;entryDx=0;entryDy=0;fontSize=15;fontFamily=Lucida Console;" edge="1" parent="1" source="hkWMJurQp-Kq_6r-GerD-2" target="hkWMJurQp-Kq_6r-GerD-3">
          <mxGeometry relative="1" as="geometry" />
        </mxCell>
        <mxCell id="hkWMJurQp-Kq_6r-GerD-2" value="System Design" style="rounded=0;whiteSpace=wrap;html=1;fontSize=15;fontFamily=Lucida Console;" vertex="1" parent="1">
          <mxGeometry x="170" y="140" width="220" height="60" as="geometry" />
        </mxCell>
        <mxCell id="hkWMJurQp-Kq_6r-GerD-10" style="edgeStyle=orthogonalEdgeStyle;rounded=0;orthogonalLoop=1;jettySize=auto;html=1;exitX=0;exitY=0.5;exitDx=0;exitDy=0;entryX=0.5;entryY=1;entryDx=0;entryDy=0;fontSize=15;fontFamily=Lucida Console;" edge="1" parent="1" source="hkWMJurQp-Kq_6r-GerD-3" target="hkWMJurQp-Kq_6r-GerD-2">
          <mxGeometry relative="1" as="geometry" />
        </mxCell>
        <mxCell id="hkWMJurQp-Kq_6r-GerD-11" style="edgeStyle=orthogonalEdgeStyle;rounded=0;orthogonalLoop=1;jettySize=auto;html=1;exitX=1;exitY=0.5;exitDx=0;exitDy=0;entryX=0.5;entryY=0;entryDx=0;entryDy=0;fontSize=15;fontFamily=Lucida Console;" edge="1" parent="1" source="hkWMJurQp-Kq_6r-GerD-3" target="hkWMJurQp-Kq_6r-GerD-4">
          <mxGeometry relative="1" as="geometry" />
        </mxCell>
        <mxCell id="hkWMJurQp-Kq_6r-GerD-3" value="System Development" style="rounded=0;whiteSpace=wrap;html=1;fontSize=15;fontFamily=Lucida Console;" vertex="1" parent="1">
          <mxGeometry x="330" y="230" width="220" height="60" as="geometry" />
        </mxCell>
        <mxCell id="hkWMJurQp-Kq_6r-GerD-12" style="edgeStyle=orthogonalEdgeStyle;rounded=0;orthogonalLoop=1;jettySize=auto;html=1;exitX=0;exitY=0.5;exitDx=0;exitDy=0;entryX=0.5;entryY=1;entryDx=0;entryDy=0;fontSize=15;fontFamily=Lucida Console;" edge="1" parent="1" source="hkWMJurQp-Kq_6r-GerD-4" target="hkWMJurQp-Kq_6r-GerD-3">
          <mxGeometry relative="1" as="geometry" />
        </mxCell>
        <mxCell id="hkWMJurQp-Kq_6r-GerD-13" style="edgeStyle=orthogonalEdgeStyle;rounded=0;orthogonalLoop=1;jettySize=auto;html=1;exitX=1;exitY=0.5;exitDx=0;exitDy=0;fontSize=15;fontFamily=Lucida Console;" edge="1" parent="1" source="hkWMJurQp-Kq_6r-GerD-4" target="hkWMJurQp-Kq_6r-GerD-5">
          <mxGeometry relative="1" as="geometry" />
        </mxCell>
        <mxCell id="hkWMJurQp-Kq_6r-GerD-4" value="System Integration &amp;amp; Testing" style="rounded=0;whiteSpace=wrap;html=1;fontSize=15;fontFamily=Lucida Console;" vertex="1" parent="1">
          <mxGeometry x="490" y="310" width="220" height="60" as="geometry" />
        </mxCell>
        <mxCell id="hkWMJurQp-Kq_6r-GerD-14" style="edgeStyle=orthogonalEdgeStyle;rounded=0;orthogonalLoop=1;jettySize=auto;html=1;exitX=1;exitY=0.5;exitDx=0;exitDy=0;fontSize=15;fontFamily=Lucida Console;" edge="1" parent="1" source="hkWMJurQp-Kq_6r-GerD-5" target="hkWMJurQp-Kq_6r-GerD-6">
          <mxGeometry relative="1" as="geometry" />
        </mxCell>
        <mxCell id="hkWMJurQp-Kq_6r-GerD-5" value="System Implementation" style="rounded=0;whiteSpace=wrap;html=1;fontSize=15;fontFamily=Lucida Console;" vertex="1" parent="1">
          <mxGeometry x="650" y="390" width="220" height="60" as="geometry" />
        </mxCell>
        <mxCell id="hkWMJurQp-Kq_6r-GerD-6" value="System Maintenance" style="rounded=0;whiteSpace=wrap;html=1;fontSize=15;fontFamily=Lucida Console;" vertex="1" parent="1">
          <mxGeometry x="810" y="470" width="220" height="60" as="geometry" />
        </mxCell>
      </root>
    </mxGraphModel>
  </diagram>
</mxfile>
